{"glyphs":{":":{"x_min":0,"x_max":264,"ha":264,"o":"m 85 0 l 85 95 l 179 95 l 179 0 z m 179 394 l 179 299 l 85 299 l 85 394 z"},"$":{"x_min":0,"x_max":513,"ha":513,"o":"m 222 12 q 199 12 176 14 q 153 16 132 20 q 112 23 95 27 q 79 32 69 37 l 69 104 q 85 98 106 92 q 128 86 158 82 q 188 78 219 78 l 222 78 l 222 218 q 193 223 166 230 q 138 237 116 251 q 95 266 82 288 q 68 311 68 345 q 68 374 80 397 q 91 421 112 438 q 132 455 160 466 q 188 477 222 480 l 222 531 l 287 531 l 287 481 q 327 479 361 474 q 395 468 422 458 l 422 391 q 392 400 359 407 q 326 414 287 416 l 287 277 q 316 272 344 264 q 373 257 396 243 q 418 229 432 207 q 446 185 446 150 q 446 122 435 99 q 424 77 403 60 q 382 43 353 32 q 323 21 287 16 l 287 -37 l 222 -37 z m 370 149 q 370 164 364 173 q 358 183 347 189 q 336 196 321 201 q 306 206 287 209 l 287 83 q 304 85 319 90 q 334 95 345 103 q 356 111 363 123 q 370 134 370 149 z m 145 348 q 145 322 164 308 q 183 294 222 287 l 222 414 q 145 404 145 348 z"},"?":{"x_min":0,"x_max":426,"ha":426,"o":"m 109 0 l 109 95 l 202 95 l 202 0 z m 377 512 q 377 483 368 460 q 359 437 344 418 q 329 400 311 385 q 292 370 274 355 q 258 343 242 329 q 227 315 215 299 q 204 283 197 263 q 189 243 189 218 l 189 210 l 123 210 q 122 225 122 232 q 122 265 131 292 q 141 319 158 339 q 175 360 195 375 q 214 391 233 406 q 247 416 258 427 q 270 438 279 450 q 288 462 293 476 q 298 491 298 509 q 298 530 289 547 q 280 564 264 576 q 248 588 225 594 q 202 601 174 601 q 138 601 102 591 q 67 582 39 569 l 39 634 q 65 648 103 657 q 140 666 178 666 q 224 666 261 655 q 298 644 323 623 q 349 603 363 575 q 377 547 377 512 z"},"<":{"x_min":0,"x_max":513,"ha":513,"o":"m 457 101 l 457 27 l 56 229 l 56 290 l 457 492 l 457 417 l 138 260 l 138 258 z"},"'":{"x_min":0,"x_max":196,"ha":196,"o":"m 60 653 l 136 653 l 136 412 l 60 412 z"},"=":{"x_min":0,"x_max":513,"ha":513,"o":"m 56 312 l 56 376 l 457 376 l 457 312 z m 56 133 l 56 198 l 457 198 l 457 133 z"},"a":{"x_min":0,"x_max":490,"ha":490,"o":"m 345 51 l 343 51 q 333 40 319 28 q 305 17 287 8 q 268 -1 246 -7 q 224 -12 199 -12 q 166 -12 137 -2 q 109 8 89 27 q 69 46 58 74 q 46 102 46 137 q 46 172 59 199 q 71 227 94 246 q 116 265 148 275 q 179 285 217 285 q 253 285 284 279 q 315 273 339 264 l 341 264 l 341 296 q 341 315 338 330 q 336 345 330 356 q 317 379 290 395 q 262 410 214 410 q 179 410 148 404 q 117 397 86 385 l 86 449 q 98 455 114 460 q 130 465 147 469 q 165 472 185 474 q 204 476 224 476 q 294 476 339 451 q 383 426 403 385 q 410 370 413 351 q 417 332 417 310 l 417 0 l 353 0 z m 341 204 q 320 209 291 215 q 262 220 228 221 q 179 221 152 200 q 125 180 125 137 q 125 116 131 100 q 138 83 150 73 q 162 62 178 57 q 195 52 213 52 q 238 52 259 59 q 280 66 296 76 q 312 86 324 96 q 335 105 341 111 z"},"L":{"x_min":0,"x_max":521,"ha":521,"o":"m 163 653 l 163 72 l 481 72 l 481 0 l 83 0 l 83 653 z"},"3":{"x_min":0,"x_max":453,"ha":453,"o":"m 272 150 q 298 148 322 138 q 346 127 364 108 q 382 89 393 62 q 404 34 404 -4 q 404 -49 389 -85 q 374 -122 345 -148 q 315 -174 272 -188 q 229 -202 172 -202 q 133 -202 97 -194 q 61 -187 33 -173 l 33 -108 q 68 -124 103 -130 q 137 -137 167 -137 q 212 -137 242 -126 q 272 -115 291 -97 q 309 -79 317 -55 q 325 -31 325 -5 q 325 58 285 86 q 244 114 167 114 l 116 114 l 116 179 l 146 179 q 188 179 218 189 q 248 198 268 215 q 287 232 296 255 q 305 277 305 304 q 305 332 295 352 q 285 372 268 385 q 250 398 227 405 q 204 411 177 411 q 144 411 110 403 q 76 396 43 382 l 43 447 q 83 463 120 470 q 156 476 184 476 q 231 476 269 463 q 306 451 331 428 q 357 405 371 374 q 384 342 384 305 q 384 280 378 256 q 373 233 359 213 q 346 193 324 177 q 303 162 272 152 z"},";":{"x_min":0,"x_max":267,"ha":267,"o":"m 91 106 l 176 106 l 83 -190 l 10 -190 z m 179 394 l 179 299 l 85 299 l 85 394 z"},"J":{"x_min":0,"x_max":375,"ha":375,"o":"m 214 653 l 294 653 l 294 150 q 294 109 282 79 q 270 49 247 29 q 224 8 192 -2 q 161 -12 121 -12 q 87 -12 64 -7 q 41 -1 29 4 l 29 74 q 47 67 69 63 q 90 59 114 59 q 136 59 155 63 q 173 68 187 80 q 200 92 207 111 q 214 131 214 160 z"},"V":{"x_min":0,"x_max":607,"ha":607,"o":"m 305 102 q 340 208 380 317 l 505 653 l 587 653 l 338 0 l 269 0 l 20 653 l 102 653 l 227 317 q 268 208 303 102 z"},"\"":{"x_min":0,"x_max":362,"ha":362,"o":"m 60 653 l 136 653 l 136 412 l 60 412 z m 227 653 l 302 653 l 302 412 l 227 412 z"},"7":{"x_min":0,"x_max":428,"ha":428,"o":"m 19 394 l 19 464 l 402 464 l 402 413 l 133 -189 l 54 -189 l 314 394 z"},"S":{"x_min":0,"x_max":552,"ha":552,"o":"m 144 480 q 144 452 155 433 q 167 414 187 402 q 207 390 233 382 q 259 374 287 367 q 325 358 362 347 q 399 335 428 316 q 457 296 474 264 q 492 232 492 183 q 492 132 473 95 q 455 58 421 34 q 388 11 341 -1 q 295 -12 240 -12 q 214 -12 188 -9 q 161 -6 137 0 q 113 5 93 12 q 74 19 62 25 l 62 98 q 80 89 102 82 q 124 75 147 70 q 171 64 195 62 q 219 59 240 59 q 274 59 305 64 q 336 70 359 84 q 383 98 396 121 q 410 145 410 181 q 410 210 398 229 q 386 248 366 260 q 346 273 320 281 q 294 289 265 295 q 227 304 191 315 q 154 326 126 346 q 97 365 80 396 q 62 427 62 475 q 62 524 80 560 q 98 596 128 620 q 158 643 199 654 q 239 666 285 666 q 337 666 383 656 q 428 646 465 629 l 465 556 q 425 573 382 583 q 338 594 289 595 q 252 595 225 587 q 197 579 179 564 q 161 549 152 528 q 144 506 144 480 z"},"}":{"x_min":0,"x_max":300,"ha":300,"o":"m 242 224 q 227 224 212 222 q 197 220 185 214 q 173 207 165 194 q 157 181 157 158 q 157 134 164 114 q 171 94 182 76 q 188 64 194 53 q 200 42 205 31 q 209 20 212 7 q 215 -6 215 -22 q 215 -40 208 -61 q 202 -83 183 -102 q 164 -121 130 -134 q 97 -146 43 -146 l 27 -146 l 27 -86 l 33 -86 q 86 -86 113 -69 q 139 -51 139 -20 q 139 3 131 23 q 122 42 112 62 q 103 79 96 99 q 90 119 90 146 q 90 172 98 192 q 105 211 116 224 q 127 237 138 244 q 150 251 157 252 l 157 254 q 150 256 138 263 q 127 270 116 283 q 105 295 98 315 q 90 334 90 361 q 90 390 97 411 q 105 433 115 452 q 125 470 132 488 q 139 505 139 526 q 139 558 113 576 q 86 593 33 593 l 27 593 l 27 653 l 43 653 q 97 653 130 641 q 164 628 183 609 q 202 590 208 568 q 215 546 215 528 q 215 502 207 481 q 198 460 187 440 q 175 420 166 398 q 157 375 157 349 q 157 326 165 313 q 173 300 185 293 q 197 287 212 285 q 227 283 242 283 z"},"Z":{"x_min":0,"x_max":585,"ha":585,"o":"m 532 653 l 532 604 l 153 72 l 537 72 l 537 0 l 49 0 l 49 50 l 429 582 l 58 582 l 58 653 z"},"x":{"x_min":0,"x_max":455,"ha":455,"o":"m 229 285 l 355 464 l 439 464 l 270 234 l 445 0 l 363 0 l 228 186 l 226 186 l 92 0 l 10 0 l 186 236 l 16 464 l 100 464 l 228 285 z"},")":{"x_min":0,"x_max":300,"ha":300,"o":"m 170 253 q 170 319 159 375 q 148 430 129 477 q 111 523 86 560 q 62 598 35 626 l 77 666 q 90 654 108 634 q 126 614 145 587 q 164 559 182 524 q 200 489 214 448 q 229 406 237 357 q 246 309 246 253 q 246 199 237 150 q 229 101 214 59 q 200 18 182 -17 q 164 -52 145 -80 q 126 -107 108 -127 q 90 -147 77 -159 l 35 -120 q 62 -91 86 -53 q 111 -16 129 30 q 148 77 159 132 q 170 188 170 253 z"},"&":{"x_min":0,"x_max":669,"ha":669,"o":"m 600 340 q 599 269 576 211 q 553 154 514 109 q 535 88 553 69 q 572 50 586 35 q 600 21 609 11 q 618 2 621 0 l 524 0 q 522 2 506 19 q 489 36 463 62 q 416 26 361 7 q 307 -12 250 -12 q 197 -12 158 2 q 120 17 96 41 q 71 65 60 95 q 49 126 49 158 q 49 196 60 225 q 71 253 90 276 q 108 298 133 315 q 157 333 184 347 q 164 366 147 384 q 129 403 116 423 q 104 443 96 465 q 89 487 89 514 q 89 550 102 578 q 115 606 139 625 q 163 645 196 655 q 229 666 270 666 q 307 666 339 656 q 371 647 394 629 q 418 610 432 583 q 445 557 445 521 q 445 485 433 457 q 420 430 399 408 q 378 386 351 368 q 324 351 295 335 q 312 319 332 298 q 352 277 374 254 q 396 231 420 207 q 443 183 466 159 q 491 192 506 236 q 521 281 522 340 z m 250 52 q 269 52 289 55 q 310 59 332 65 q 353 72 375 83 q 396 94 417 109 q 393 133 368 159 q 343 185 318 210 q 293 235 271 258 q 249 281 230 299 q 209 287 190 273 q 172 259 158 243 q 144 227 136 208 q 128 188 128 164 q 128 142 135 122 q 143 102 158 86 q 173 71 196 62 q 219 52 250 52 z m 168 514 q 168 496 173 479 q 179 463 189 448 q 200 432 215 416 q 230 400 250 381 q 273 393 294 406 q 315 419 332 435 q 348 451 357 470 q 366 490 366 515 q 366 538 359 554 q 352 570 338 581 q 325 591 307 596 q 289 601 267 601 q 221 601 194 579 q 168 556 168 514 z"},"_":{"x_min":0,"x_max":488,"ha":488,"o":"m 0 -69 l 488 -69 l 488 -134 l 0 -134 z"},"v":{"x_min":0,"x_max":462,"ha":462,"o":"m 231 77 q 248 127 276 206 l 368 464 l 447 464 l 271 0 l 191 0 l 15 464 l 93 464 l 185 206 q 212 130 229 77 z"},"O":{"x_min":0,"x_max":730,"ha":730,"o":"m 588 326 q 588 392 571 442 q 554 493 524 526 q 494 560 453 577 q 412 595 365 595 q 318 595 278 577 q 237 560 207 526 q 177 493 160 442 q 143 392 143 326 q 143 260 160 210 q 177 160 207 126 q 237 93 278 76 q 319 59 366 59 q 413 59 453 76 q 494 93 524 126 q 554 160 571 210 q 588 260 588 326 z m 672 326 q 672 252 650 190 q 629 128 589 83 q 549 38 492 13 q 436 -12 366 -12 q 294 -12 237 13 q 180 38 140 83 q 101 128 80 190 q 59 252 59 326 q 59 401 80 463 q 102 525 142 570 q 182 615 238 640 q 295 666 365 666 q 437 666 494 640 q 551 615 590 570 q 630 525 651 463 q 672 401 672 326 z"},"(":{"x_min":0,"x_max":300,"ha":300,"o":"m 129 253 q 129 188 141 132 q 152 77 170 30 q 189 -16 214 -53 q 238 -91 265 -120 l 223 -159 q 209 -147 191 -127 q 173 -107 155 -80 q 136 -52 118 -17 q 100 18 85 59 q 71 101 62 150 q 54 199 54 253 q 54 309 62 357 q 71 406 85 448 q 100 489 118 524 q 136 559 155 587 q 173 614 191 634 q 209 654 223 666 l 265 626 q 238 598 214 560 q 189 523 170 477 q 152 430 141 375 q 129 319 129 253 z"},"C":{"x_min":0,"x_max":589,"ha":589,"o":"m 400 595 q 346 595 299 577 q 252 560 217 526 q 183 491 163 440 q 143 389 143 321 q 143 254 161 204 q 180 155 214 122 q 248 90 296 74 q 344 59 403 59 q 419 59 438 60 q 456 62 474 65 q 492 68 510 73 q 527 77 541 82 l 541 11 q 512 0 474 -6 q 436 -12 396 -12 q 314 -12 251 10 q 188 33 145 76 q 103 118 81 179 q 59 241 59 318 q 59 395 82 458 q 105 522 149 568 q 192 614 255 640 q 317 666 395 666 q 415 666 435 664 q 455 662 473 659 q 492 656 507 651 q 523 647 534 642 l 534 572 q 505 582 470 588 q 436 595 400 595 z"},"W":{"x_min":0,"x_max":882,"ha":882,"o":"m 440 545 q 432 500 403 388 l 302 0 l 221 0 l 20 653 l 103 653 l 213 270 q 240 178 258 104 l 260 104 q 270 149 281 192 q 293 235 302 269 l 401 653 l 480 653 l 580 269 q 617 130 622 104 l 624 104 q 640 172 668 270 l 779 653 l 862 653 l 661 0 l 580 0 l 479 388 q 451 497 442 545 z"},"A":{"x_min":0,"x_max":635,"ha":635,"o":"m 17 0 l 283 653 l 352 653 l 618 0 l 532 0 l 454 197 l 181 197 l 103 0 z m 317 552 q 273 430 233 330 l 209 269 l 425 269 l 401 330 q 361 432 319 552 z"},"f":{"x_min":0,"x_max":318,"ha":318,"o":"m 342 647 q 328 650 310 652 q 292 653 280 653 q 254 653 234 647 q 214 641 200 627 q 187 613 179 590 q 172 567 172 535 l 172 464 l 310 464 l 310 399 l 172 399 l 172 0 l 96 0 l 96 399 l 15 399 l 15 464 l 96 464 l 96 535 q 96 585 110 619 q 123 654 146 676 q 170 698 202 709 q 233 719 270 719 q 293 719 313 717 q 333 714 342 711 z"},"Q":{"x_min":0,"x_max":739,"ha":739,"o":"m 588 326 q 588 392 571 442 q 554 493 524 526 q 494 560 453 577 q 412 595 365 595 q 318 595 278 577 q 237 560 207 526 q 177 493 160 442 q 143 392 143 326 q 143 260 160 210 q 177 160 207 126 q 237 93 278 76 q 319 59 366 59 q 413 59 453 76 q 494 93 524 126 q 554 160 571 210 q 588 260 588 326 z m 672 333 q 672 286 662 244 q 652 202 634 167 q 616 131 591 104 q 566 76 536 57 l 536 55 q 576 61 612 64 q 648 68 686 67 l 686 -5 q 663 -3 636 -2 q 609 0 574 0 q 547 0 521 -1 q 494 -3 467 -5 q 441 -7 416 -8 q 390 -10 367 -10 q 294 -10 237 15 q 180 39 140 83 q 101 127 80 189 q 59 251 59 326 q 59 401 80 463 q 102 525 142 570 q 182 615 238 640 q 295 666 365 666 q 437 666 494 640 q 551 615 590 571 q 630 526 651 465 q 672 404 672 333 z"},"w":{"x_min":0,"x_max":712,"ha":712,"o":"m 354 387 q 339 323 326 277 l 250 0 l 172 0 l 20 464 l 96 464 l 182 175 q 199 118 208 83 l 210 83 q 218 119 236 185 l 313 464 l 398 464 l 476 185 q 492 128 502 83 l 504 83 q 516 128 530 175 l 616 464 l 692 464 l 540 0 l 461 0 l 385 277 q 371 326 356 387 z"},"-":{"x_min":0,"x_max":333,"ha":333,"o":"m 59 279 l 274 279 l 274 208 l 59 208 z"},"E":{"x_min":0,"x_max":551,"ha":551,"o":"m 163 72 l 498 72 l 498 0 l 83 0 l 83 653 l 479 653 l 479 582 l 163 582 l 163 371 l 444 371 l 444 299 l 163 299 z"},"s":{"x_min":0,"x_max":404,"ha":404,"o":"m 122 340 q 122 321 130 309 q 139 297 153 289 q 167 282 185 277 q 203 272 223 268 q 250 262 273 255 q 297 248 318 234 q 338 220 350 196 q 363 171 363 133 q 363 98 349 71 q 335 43 311 25 q 286 7 251 -3 q 216 -12 175 -12 q 149 -12 129 -10 q 108 -7 92 -3 q 76 1 65 6 q 54 10 46 14 l 46 78 q 76 66 104 59 q 133 52 168 52 q 195 52 217 57 q 239 62 255 72 q 271 81 280 95 q 288 110 288 129 q 288 148 280 161 q 272 174 259 182 q 246 190 229 196 q 211 201 192 206 q 167 211 142 218 q 116 226 95 239 q 74 252 61 275 q 48 297 48 333 q 48 370 62 396 q 75 423 97 441 q 120 458 149 467 q 179 476 212 476 q 251 476 284 469 q 317 461 344 450 l 344 386 q 314 397 284 404 q 254 411 223 412 q 196 412 177 406 q 158 401 146 391 q 133 382 128 369 q 122 356 122 340 z"},">":{"x_min":0,"x_max":513,"ha":513,"o":"m 379 258 l 379 260 l 56 418 l 56 492 l 457 292 l 457 226 l 56 27 l 56 100 z"},"l":{"x_min":0,"x_max":232,"ha":232,"o":"m 78 0 l 78 707 l 154 707 l 154 0 z"},"8":{"x_min":0,"x_max":515,"ha":515,"o":"m 257 -12 q 210 -12 171 2 q 132 16 104 40 q 77 64 62 98 q 46 131 46 170 q 46 207 57 234 q 67 262 84 283 q 102 303 125 317 q 148 330 174 336 l 174 338 q 149 347 129 361 q 108 375 93 395 q 77 415 69 440 q 60 465 60 495 q 60 537 77 568 q 93 600 121 622 q 148 644 184 655 q 219 666 257 666 q 295 666 331 655 q 366 644 394 622 q 421 600 438 568 q 455 537 455 495 q 455 465 445 440 q 436 415 419 395 q 403 375 382 361 q 360 347 336 338 l 336 336 q 362 330 386 317 q 410 303 428 283 q 446 262 457 234 q 468 207 468 170 q 468 131 453 98 q 438 64 410 40 q 382 16 344 2 q 305 -12 257 -12 z m 257 601 q 232 601 210 594 q 188 587 173 573 q 157 559 148 539 q 139 519 139 493 q 139 443 170 412 q 201 380 257 369 q 313 380 344 412 q 375 443 375 493 q 375 519 367 539 q 358 559 342 573 q 326 587 305 594 q 283 601 257 601 z m 257 302 q 230 299 206 290 q 182 281 164 265 q 146 250 136 227 q 125 204 125 173 q 125 145 135 123 q 146 100 163 84 q 181 69 205 61 q 229 52 257 52 q 286 52 310 61 q 334 69 352 84 q 370 100 379 123 q 389 145 389 173 q 389 204 379 227 q 369 250 351 265 q 333 281 309 290 q 285 299 257 302 z"},"\\":{"x_min":0,"x_max":275,"ha":275,"o":"m 182 -122 l -3 653 l 69 653 l 254 -122 z"},"e":{"x_min":0,"x_max":498,"ha":498,"o":"m 255 411 q 229 411 207 401 q 185 391 168 373 q 151 355 141 332 q 131 308 128 281 l 363 281 q 363 309 356 332 q 349 356 335 374 q 321 391 301 401 q 281 411 255 411 z m 296 54 q 334 54 365 60 q 396 66 427 77 l 427 14 q 402 2 365 -5 q 329 -12 287 -12 q 237 -12 193 0 q 149 13 117 42 q 84 70 65 115 q 46 161 46 226 q 46 289 64 336 q 82 382 111 414 q 140 445 178 460 q 216 476 258 476 q 297 476 331 463 q 365 450 390 422 q 415 395 429 351 q 443 307 443 245 q 443 239 443 235 q 443 231 443 216 l 125 216 q 125 172 138 141 q 151 110 175 91 q 198 71 229 62 q 260 54 296 54 z"},"b":{"x_min":0,"x_max":536,"ha":536,"o":"m 410 234 q 410 289 397 323 q 384 358 364 377 q 344 396 321 404 q 298 411 275 411 q 240 411 209 396 q 178 382 154 358 l 154 116 q 161 106 172 95 q 183 84 198 75 q 213 65 232 59 q 250 52 273 52 q 307 52 332 65 q 358 79 375 103 q 393 127 401 160 q 410 194 410 234 z m 489 240 q 489 175 472 127 q 454 80 425 49 q 396 18 359 3 q 322 -12 283 -12 q 253 -12 230 -5 q 208 3 192 13 q 176 24 166 35 q 157 45 153 52 l 151 52 l 135 0 l 78 0 l 78 707 l 154 707 l 154 420 l 155 420 q 180 447 213 461 q 247 476 289 476 q 309 476 331 472 q 354 467 376 457 q 398 446 419 428 q 439 411 455 385 q 471 358 480 323 q 489 287 489 240 z"},"%":{"x_min":0,"x_max":805,"ha":805,"o":""},"m":{"x_min":0,"x_max":829,"ha":829,"o":"m 452 0 l 376 0 l 376 298 q 376 329 370 350 q 363 371 351 385 q 338 398 321 405 q 304 411 282 411 q 242 411 208 389 q 175 368 149 330 l 149 0 l 73 0 l 73 464 l 132 464 l 146 399 l 148 399 q 161 416 176 429 q 190 443 209 454 q 227 464 249 470 q 271 476 297 476 q 349 476 383 451 q 417 426 436 383 l 438 383 q 468 427 508 451 q 547 476 600 476 q 625 476 652 469 q 679 462 702 444 q 725 426 740 394 q 755 361 755 311 l 755 0 l 680 0 l 680 298 q 680 329 674 350 q 667 371 655 385 q 642 398 625 405 q 607 411 586 411 q 545 411 512 389 q 479 368 452 330 z"},"#":{"x_min":0,"x_max":655,"ha":655,"o":"m 209 463 l 248 653 l 320 653 l 281 463 l 430 463 l 469 653 l 541 653 l 502 463 l 596 463 l 596 399 l 489 399 l 459 254 l 556 254 l 556 190 l 446 190 l 407 0 l 334 0 l 374 190 l 225 190 l 186 0 l 114 0 l 153 190 l 59 190 l 59 254 l 166 254 l 196 399 l 99 399 l 99 463 z m 238 254 l 387 254 l 417 399 l 268 399 z"},",":{"x_min":0,"x_max":264,"ha":264,"o":"m 91 106 l 176 106 l 83 -190 l 10 -190 z"},"n":{"x_min":0,"x_max":527,"ha":527,"o":"m 146 399 l 148 399 q 161 416 176 429 q 191 443 210 454 q 229 464 252 470 q 275 476 302 476 q 333 476 361 467 q 389 458 410 439 q 430 419 442 388 q 454 356 454 311 l 454 0 l 378 0 l 378 298 q 378 358 355 385 q 332 411 288 411 q 249 411 212 389 q 175 368 149 330 l 149 0 l 73 0 l 73 464 l 132 464 z"},"h":{"x_min":0,"x_max":532,"ha":532,"o":"m 154 400 l 155 400 q 168 417 184 430 q 199 444 218 454 q 237 464 259 470 q 281 476 307 476 q 333 476 359 469 q 386 462 408 444 q 431 426 445 394 q 459 361 459 311 l 459 0 l 383 0 l 383 298 q 383 354 362 383 q 341 411 292 411 q 252 411 216 389 q 180 368 154 330 l 154 0 l 78 0 l 78 707 l 154 707 z"},"z":{"x_min":0,"x_max":444,"ha":444,"o":"m 297 397 l 297 399 l 42 399 l 42 464 l 393 464 l 393 416 l 135 67 l 135 65 l 410 65 l 410 0 l 34 0 l 34 41 z"},"B":{"x_min":0,"x_max":593,"ha":593,"o":"m 405 338 q 436 333 460 322 q 484 310 501 292 q 519 273 528 248 q 537 223 537 191 q 537 168 530 143 q 523 118 508 94 q 492 70 466 50 q 440 30 402 18 q 373 8 337 4 q 302 0 252 0 l 83 0 l 83 653 l 246 653 q 269 653 287 653 q 305 652 321 650 q 336 649 349 647 q 362 645 374 642 q 405 633 430 619 q 455 604 473 584 q 490 564 500 539 q 509 514 509 484 q 509 460 504 438 q 498 416 486 397 q 473 379 453 364 q 434 350 405 340 z m 284 371 q 307 371 324 373 q 341 375 355 379 q 392 392 408 417 q 425 443 425 479 q 425 515 408 538 q 390 561 353 572 q 334 577 310 579 q 285 582 252 582 l 163 582 l 163 371 z m 163 299 l 163 72 l 259 72 q 293 72 322 75 q 352 78 372 85 q 395 92 410 104 q 426 115 435 129 q 445 143 449 159 q 453 174 453 190 q 453 209 449 225 q 444 242 434 255 q 424 268 408 277 q 392 287 367 292 q 353 296 334 297 q 315 299 287 299 z"},"K":{"x_min":0,"x_max":605,"ha":605,"o":"m 83 0 l 83 653 l 163 653 l 163 331 l 164 331 l 464 653 l 562 653 l 257 328 l 585 0 l 482 0 l 164 320 l 163 320 l 163 0 z"},"R":{"x_min":0,"x_max":592,"ha":592,"o":"m 163 271 l 163 0 l 83 0 l 83 653 l 252 653 q 295 653 325 650 q 355 647 380 640 q 449 622 485 577 q 521 532 521 465 q 521 426 508 395 q 496 363 473 340 q 450 317 418 303 q 386 288 347 281 l 347 279 l 560 0 l 460 0 l 259 271 z m 163 582 l 163 342 l 241 342 q 278 342 304 345 q 330 347 350 354 q 392 366 414 394 q 437 422 437 467 q 436 509 415 534 q 394 560 357 571 q 339 577 315 579 q 291 582 253 582 z"},"T":{"x_min":0,"x_max":555,"ha":555,"o":"m 317 0 l 238 0 l 238 582 l 20 582 l 20 653 l 536 653 l 536 582 l 317 582 z"},"P":{"x_min":0,"x_max":570,"ha":570,"o":"m 163 0 l 83 0 l 83 653 l 264 653 q 305 653 339 648 q 374 644 402 633 q 461 612 491 571 q 521 529 521 468 q 521 418 502 380 q 482 342 444 317 q 407 292 353 279 q 299 266 230 266 q 198 266 163 269 z m 163 341 q 179 339 196 338 q 214 337 229 337 q 286 337 325 346 q 365 355 390 372 q 415 389 426 413 q 437 437 437 468 q 437 506 419 530 q 400 555 367 567 q 346 575 318 578 q 291 582 255 582 l 163 582 z"},"|":{"x_min":0,"x_max":227,"ha":227,"o":"m 149 -227 l 78 -227 l 78 707 l 149 707 z"},"t":{"x_min":0,"x_max":347,"ha":347,"o":"m 318 -1 q 308 -5 288 -8 q 268 -12 240 -12 q 204 -12 177 -3 q 150 6 132 23 q 114 40 105 63 q 97 87 97 117 l 97 399 l 7 399 l 7 464 l 97 464 l 97 591 l 172 591 l 172 464 l 311 464 l 311 399 l 172 399 l 172 128 q 172 112 177 99 q 182 85 192 75 q 202 65 217 59 q 233 54 255 54 q 270 54 287 56 q 304 59 318 62 z"},"M":{"x_min":0,"x_max":822,"ha":822,"o":"m 429 0 l 393 0 l 228 390 q 194 471 160 565 l 156 565 q 163 429 163 316 l 163 0 l 83 0 l 83 653 l 198 653 l 352 284 q 378 220 410 131 l 412 131 q 447 230 470 284 l 624 653 l 739 653 l 739 0 l 659 0 l 659 316 q 659 427 666 565 l 662 565 q 626 465 594 390 z"},"g":{"x_min":0,"x_max":531,"ha":531,"o":"m 125 229 q 125 174 139 140 q 152 105 172 86 q 192 66 216 59 q 240 52 262 52 q 297 52 328 66 q 358 81 382 105 l 382 348 q 375 356 364 368 q 353 379 338 388 q 323 398 304 405 q 285 411 263 411 q 229 411 203 398 q 178 384 160 360 q 143 336 134 303 q 125 270 125 229 z m 253 476 q 283 476 306 468 q 328 461 344 450 q 360 439 370 428 q 379 417 383 411 l 385 411 l 400 464 l 458 464 l 458 -27 q 458 -81 440 -121 q 422 -161 391 -187 q 359 -213 314 -226 q 270 -239 215 -239 q 169 -239 133 -231 q 97 -223 77 -212 l 77 -148 q 93 -155 109 -159 q 125 -164 141 -167 q 158 -170 175 -172 q 192 -173 213 -173 q 295 -173 338 -135 q 382 -97 382 -19 l 382 43 l 380 43 q 355 16 323 2 q 290 -12 247 -12 q 228 -12 205 -8 q 183 -3 160 7 q 138 18 117 35 q 97 52 81 78 q 65 104 56 140 q 46 176 46 223 q 46 288 64 335 q 82 383 110 414 q 139 445 176 461 q 213 476 253 476 z"},"j":{"x_min":0,"x_max":241,"ha":241,"o":"m 163 -104 q 163 -167 126 -203 q 90 -239 10 -239 q -11 -239 -30 -236 q -49 -233 -59 -229 l -59 -165 q -44 -169 -29 -171 q -15 -173 1 -173 q 47 -173 67 -154 q 87 -135 87 -95 l 87 464 l 163 464 z m 85 572 l 85 656 l 165 656 l 165 572 z"},"i":{"x_min":0,"x_max":232,"ha":232,"o":"m 78 0 l 78 464 l 154 464 l 154 0 z m 76 572 l 76 656 l 156 656 l 156 572 z"},"y":{"x_min":0,"x_max":479,"ha":479,"o":"m 15 464 l 92 464 l 236 100 l 239 100 l 385 464 l 465 464 l 175 -227 l 100 -227 l 199 9 z"},"@":{"x_min":0,"x_max":1011,"ha":1011,"o":"m 615 204 q 605 207 594 209 q 583 212 571 215 q 559 217 544 219 q 529 221 512 221 q 463 221 436 200 q 409 180 409 137 q 409 118 415 104 q 421 90 432 81 q 443 71 458 67 q 473 62 490 62 q 509 62 527 67 q 544 72 560 80 q 576 88 590 99 q 604 109 615 121 z m 619 61 q 609 49 595 38 q 582 26 564 17 q 546 8 525 3 q 503 -2 478 -2 q 446 -2 419 7 q 392 17 372 35 q 353 54 342 79 q 331 105 331 137 q 331 172 343 199 q 355 227 378 246 q 400 265 432 275 q 463 285 501 285 q 539 285 565 279 q 591 272 613 264 l 615 264 l 615 292 q 615 317 609 338 q 604 359 590 374 q 576 389 554 397 q 532 405 499 405 q 463 405 432 399 q 401 392 371 380 l 371 444 q 383 450 398 455 q 414 460 432 464 q 449 467 469 469 q 488 471 508 471 q 555 471 589 459 q 624 447 646 425 q 669 403 680 372 q 691 340 691 302 l 691 111 q 691 86 699 74 q 707 62 729 62 q 755 62 778 79 q 800 96 816 125 q 833 155 842 194 q 851 233 851 277 q 851 356 824 416 q 798 477 752 517 q 706 558 645 579 q 584 600 514 600 q 452 600 402 585 q 352 571 313 546 q 274 521 246 486 q 218 451 200 409 q 182 367 173 320 q 164 273 164 224 q 164 145 187 79 q 209 13 255 -35 q 300 -83 368 -110 q 436 -137 526 -137 q 569 -137 607 -133 q 646 -129 680 -122 q 713 -115 741 -107 q 770 -98 791 -89 l 791 -155 q 769 -164 740 -172 q 710 -181 675 -187 q 640 -194 600 -198 q 561 -202 520 -202 q 461 -202 406 -190 q 351 -178 303 -154 q 255 -130 215 -95 q 176 -60 147 -13 q 119 34 104 92 q 88 150 88 220 q 88 321 118 403 q 148 486 204 544 q 260 602 339 634 q 417 666 515 666 q 604 666 679 638 q 754 610 808 560 q 862 509 893 439 q 923 368 923 282 q 923 216 907 164 q 891 111 863 74 q 835 37 797 17 q 759 -2 715 -2 q 694 -2 678 2 q 662 7 651 16 q 640 24 632 36 q 625 47 621 61 z"},".":{"x_min":0,"x_max":264,"ha":264,"o":"m 85 0 l 85 95 l 179 95 l 179 0 z"},"p":{"x_min":0,"x_max":531,"ha":531,"o":"m 405 236 q 405 277 397 309 q 388 341 371 364 q 354 387 329 399 q 304 411 271 411 q 248 411 229 405 q 209 398 194 389 q 178 379 167 368 q 156 356 149 348 l 149 105 q 173 81 203 66 q 234 52 269 52 q 291 52 314 60 q 338 68 359 89 q 379 110 392 146 q 405 181 405 236 z m 484 237 q 484 189 475 152 q 465 114 450 86 q 434 59 413 40 q 392 21 370 10 q 347 -2 324 -7 q 301 -12 280 -12 q 238 -12 207 2 q 175 16 150 43 l 149 43 l 149 -227 l 73 -227 l 73 464 l 130 464 l 146 411 l 148 411 q 154 421 164 430 q 174 439 191 450 q 208 460 232 468 q 255 476 283 476 q 322 476 359 463 q 395 450 423 421 q 451 392 468 347 q 484 302 484 237 z"},"X":{"x_min":0,"x_max":584,"ha":584,"o":"m 295 389 l 476 653 l 564 653 l 342 332 l 574 0 l 485 0 l 293 277 l 292 277 l 100 0 l 10 0 l 244 333 l 24 653 l 111 653 l 293 389 z"},"*":{"x_min":0,"x_max":538,"ha":538,"o":"m 270 415 l 268 415 l 228 317 l 173 242 l 116 284 l 170 359 l 246 431 l 245 433 l 144 443 l 59 471 l 81 539 l 166 511 l 253 460 l 255 462 l 233 561 l 233 653 l 304 653 l 304 561 l 283 462 l 285 460 l 372 511 l 457 539 l 479 471 l 394 443 l 293 433 l 292 431 l 367 359 l 422 284 l 365 242 l 310 317 z"},"Y":{"x_min":0,"x_max":594,"ha":594,"o":"m 337 263 l 337 0 l 257 0 l 257 263 l 20 653 l 106 653 l 296 336 l 298 336 l 488 653 l 575 653 z"},"c":{"x_min":0,"x_max":438,"ha":438,"o":"m 272 476 q 306 476 337 469 q 368 462 390 449 l 390 386 q 359 398 333 404 q 307 410 280 410 q 252 410 224 400 q 196 391 174 370 q 152 349 139 314 q 125 279 125 227 q 125 189 135 158 q 146 126 165 103 q 185 80 215 67 q 245 54 284 54 q 312 54 341 60 q 370 66 397 77 l 397 14 q 389 9 375 4 q 362 0 346 -4 q 330 -8 312 -10 q 293 -12 275 -12 q 229 -12 187 2 q 145 16 114 45 q 83 75 64 120 q 46 165 46 226 q 46 272 56 309 q 65 345 82 373 q 99 401 121 420 q 143 440 168 452 q 193 465 220 470 q 247 476 272 476 z"},"!":{"x_min":0,"x_max":264,"ha":264,"o":"m 85 0 l 85 95 l 179 95 l 179 0 z m 176 653 l 164 210 l 100 210 l 88 653 z"},"/":{"x_min":0,"x_max":275,"ha":275,"o":"m 9 -122 l 194 653 l 267 653 l 81 -122 z"},"[":{"x_min":0,"x_max":315,"ha":315,"o":"m 78 653 l 286 653 l 286 593 l 149 593 l 149 -86 l 286 -86 l 286 -146 l 78 -146 z"},"6":{"x_min":0,"x_max":524,"ha":524,"o":"m 275 394 q 319 394 356 381 q 393 369 419 344 q 446 320 461 284 q 476 248 476 201 q 476 154 462 115 q 448 76 421 48 q 395 20 357 4 q 319 -12 271 -12 q 219 -12 179 8 q 139 29 111 67 q 83 105 68 159 q 54 213 54 281 q 54 333 62 381 q 70 430 86 472 q 102 515 125 551 q 148 586 179 612 q 209 637 248 651 q 286 666 331 666 q 368 665 395 658 q 421 651 439 643 l 439 579 q 420 587 393 593 q 365 600 336 600 q 301 600 268 585 q 235 571 208 541 q 181 511 162 465 q 144 418 136 355 l 138 355 q 169 373 205 383 q 241 394 275 394 z m 273 52 q 299 52 322 62 q 344 71 361 89 q 377 107 387 134 q 396 160 396 194 q 396 231 386 256 q 376 281 359 297 q 342 312 319 319 q 295 326 269 326 q 234 326 198 314 q 162 302 133 284 q 132 226 143 182 q 153 138 172 109 q 190 81 217 66 q 243 52 273 52 z"},"r":{"x_min":0,"x_max":335,"ha":335,"o":"m 328 402 l 322 402 q 295 402 269 397 q 243 393 220 383 q 198 373 179 358 q 161 343 149 323 l 149 0 l 73 0 l 73 464 l 132 464 l 146 390 l 148 390 q 159 408 176 424 q 192 439 212 451 q 233 463 257 469 q 282 476 309 476 q 313 476 319 476 q 324 476 328 475 z"},"2":{"x_min":0,"x_max":511,"ha":511,"o":"m 199 67 q 255 70 300 70 l 453 70 l 453 0 l 76 0 l 76 50 q 132 92 179 128 q 227 164 261 197 q 295 229 315 261 q 334 292 334 324 q 334 366 307 389 q 280 411 229 411 q 190 411 155 400 q 119 389 81 372 l 81 436 q 108 452 149 464 q 190 476 239 476 q 277 476 309 466 q 341 457 365 438 q 388 419 400 391 q 413 364 413 328 q 413 289 396 256 q 380 222 351 191 q 322 161 283 131 q 244 101 199 69 z"},"{":{"x_min":0,"x_max":300,"ha":300,"o":"m 59 283 q 73 283 88 285 q 104 287 115 293 q 127 300 135 313 q 143 326 143 349 q 143 375 134 398 q 125 420 114 440 q 103 460 94 481 q 85 502 85 528 q 85 546 92 568 q 99 590 117 609 q 136 628 170 641 q 204 653 257 653 l 273 653 l 273 593 l 268 593 q 214 593 188 576 q 161 558 161 526 q 161 505 168 488 q 175 470 185 452 q 195 433 203 411 q 210 390 210 361 q 210 334 203 315 q 195 295 184 283 q 173 270 162 263 q 150 256 144 254 l 144 252 q 150 251 162 244 q 173 237 184 224 q 195 211 203 192 q 210 172 210 146 q 210 119 204 99 q 197 79 188 62 q 178 42 170 23 q 161 3 161 -20 q 161 -51 188 -69 q 214 -86 268 -86 l 273 -86 l 273 -146 l 257 -146 q 204 -146 170 -134 q 136 -121 117 -102 q 99 -83 92 -61 q 85 -40 85 -22 q 85 -6 88 7 q 91 20 96 31 q 101 42 106 53 q 112 64 119 76 q 129 94 136 114 q 143 134 143 158 q 143 181 135 194 q 127 207 115 214 q 104 220 88 222 q 73 224 59 224 z"},"9":{"x_min":0,"x_max":524,"ha":524,"o":"m 188 -202 q 150 -202 118 -194 q 86 -187 62 -173 l 62 -108 q 86 -121 117 -128 q 148 -136 181 -136 q 226 -136 262 -122 q 299 -108 326 -79 q 353 -49 369 -3 q 385 43 390 109 l 388 109 q 375 101 357 94 q 340 86 321 81 q 301 76 281 73 q 261 70 241 70 q 201 70 166 83 q 131 95 105 119 q 79 144 64 180 q 49 216 49 263 q 49 308 62 347 q 76 386 101 415 q 127 443 165 460 q 203 476 251 476 q 304 476 345 456 q 386 436 414 396 q 442 357 456 299 q 471 242 471 167 q 471 117 464 70 q 457 23 443 -18 q 429 -59 406 -93 q 383 -126 352 -151 q 321 -175 280 -188 q 239 -202 188 -202 z m 252 138 q 289 138 326 149 q 362 161 392 178 q 391 240 381 284 q 370 328 352 356 q 333 385 307 398 q 281 412 249 412 q 223 412 200 402 q 178 393 162 375 q 146 357 137 331 q 128 304 128 271 q 128 234 137 209 q 146 184 162 168 q 178 152 201 145 q 224 138 252 138 z"}," ":{"x_min":0,"x_max":200,"ha":200,"o":""},"I":{"x_min":0,"x_max":246,"ha":246,"o":"m 83 0 l 83 653 l 163 653 l 163 0 z"},"H":{"x_min":0,"x_max":667,"ha":667,"o":"m 163 371 l 505 371 l 505 653 l 584 653 l 584 0 l 505 0 l 505 299 l 163 299 l 163 0 l 83 0 l 83 653 l 163 653 z"},"4":{"x_min":0,"x_max":517,"ha":517,"o":"m 131 65 l 131 63 l 204 65 l 311 65 l 311 213 l 386 213 l 386 65 l 482 65 l 482 0 l 386 0 l 386 -189 l 311 -189 l 311 0 l 45 0 l 45 56 l 237 464 l 319 464 z"},"~":{"x_min":0,"x_max":513,"ha":513,"o":"m 458 240 q 451 224 439 210 q 428 197 413 187 q 398 177 380 171 q 362 166 341 166 q 320 166 299 172 q 277 178 257 186 q 233 196 211 205 q 188 213 167 213 q 143 213 127 201 q 111 189 98 169 l 48 205 q 56 221 67 234 q 79 248 94 258 q 109 268 127 273 q 145 279 166 279 q 189 279 214 271 q 238 263 261 254 q 282 245 302 238 q 322 231 339 231 q 363 231 380 243 q 396 255 409 275 z"},"D":{"x_min":0,"x_max":671,"ha":671,"o":"m 612 330 q 612 272 598 222 q 584 172 555 132 q 527 91 484 62 q 441 33 384 17 q 352 7 313 4 q 275 0 231 0 l 83 0 l 83 653 l 232 653 q 277 653 315 650 q 353 646 386 637 q 443 621 486 592 q 528 563 556 524 q 584 484 598 435 q 612 386 612 330 z m 528 330 q 528 424 487 482 q 446 541 370 565 q 340 575 304 578 q 268 582 223 582 l 163 582 l 163 72 l 223 72 q 268 72 304 75 q 340 79 370 88 q 446 112 487 173 q 528 234 528 330 z"},"^":{"x_min":0,"x_max":513,"ha":513,"o":"m 97 265 l 24 265 l 223 666 l 290 666 l 489 265 l 416 265 l 257 588 l 255 588 z"},"0":{"x_min":0,"x_max":514,"ha":514,"o":"m 391 231 q 391 273 381 307 q 372 340 354 364 q 337 387 312 399 q 288 412 257 412 q 226 412 201 399 q 177 387 159 364 q 142 340 132 307 q 123 273 123 231 q 123 190 133 156 q 142 123 159 100 q 177 77 202 65 q 227 52 257 52 q 288 52 313 65 q 337 77 355 100 q 372 123 381 156 q 391 190 391 231 z m 470 231 q 470 180 455 135 q 441 90 414 58 q 386 25 347 6 q 308 -12 257 -12 q 206 -12 166 6 q 126 25 99 58 q 72 90 58 135 q 44 180 44 231 q 44 284 58 328 q 73 373 100 406 q 127 439 167 458 q 207 476 257 476 q 308 476 348 458 q 388 439 415 406 q 442 373 456 328 q 470 284 470 231 z"},"F":{"x_min":0,"x_max":504,"ha":504,"o":"m 163 0 l 83 0 l 83 653 l 473 653 l 473 582 l 163 582 l 163 371 l 438 371 l 438 299 l 163 299 z"},"`":{"x_min":0,"x_max":342,"ha":342,"o":"m 184 719 l 244 549 l 180 549 l 102 719 z m 0 464 z"},"k":{"x_min":0,"x_max":487,"ha":487,"o":"m 374 464 l 472 464 l 246 250 l 472 0 l 377 0 l 155 247 l 154 247 l 154 0 l 78 0 l 78 707 l 154 707 l 154 257 l 155 257 z"},"u":{"x_min":0,"x_max":518,"ha":518,"o":"m 257 -12 q 221 -12 192 -4 q 164 3 142 18 q 120 32 105 52 q 90 71 81 95 q 74 112 71 133 q 68 154 68 179 l 68 464 l 144 464 l 144 180 q 144 141 154 115 q 166 86 192 69 q 218 52 259 52 q 302 52 328 71 q 354 89 365 121 q 374 145 374 180 l 374 464 l 449 464 l 449 179 q 449 155 447 135 q 444 115 438 98 q 429 74 414 53 q 398 33 376 19 q 354 4 324 -4 q 294 -12 257 -12 z"},"]":{"x_min":0,"x_max":315,"ha":315,"o":"m 237 -146 l 29 -146 l 29 -86 l 167 -86 l 167 593 l 29 593 l 29 653 l 237 653 z"},"U":{"x_min":0,"x_max":671,"ha":671,"o":"m 335 59 q 371 59 399 67 q 426 75 447 90 q 467 105 481 127 q 495 148 502 174 q 507 190 509 210 q 511 229 511 248 l 511 653 l 590 653 l 590 250 q 590 227 588 202 q 585 177 580 156 q 571 120 552 89 q 534 58 504 36 q 474 13 432 0 q 391 -12 334 -12 q 281 -12 240 0 q 200 11 171 32 q 142 53 123 81 q 104 110 94 144 q 87 168 84 196 q 81 224 81 250 l 81 653 l 160 653 l 160 248 q 160 226 163 203 q 167 180 173 161 q 190 113 230 86 q 270 59 335 59 z"},"o":{"x_min":0,"x_max":533,"ha":533,"o":"m 408 231 q 408 274 397 308 q 387 341 368 365 q 349 388 323 400 q 297 412 267 412 q 236 412 210 400 q 184 388 165 365 q 146 341 136 308 q 125 274 125 231 q 125 189 136 156 q 146 122 166 99 q 185 76 210 64 q 236 52 267 52 q 298 52 323 64 q 349 76 368 99 q 387 122 397 156 q 408 189 408 231 z m 487 231 q 487 177 471 132 q 456 87 427 55 q 398 23 358 5 q 317 -12 267 -12 q 215 -12 175 5 q 134 23 105 55 q 77 87 62 132 q 46 177 46 231 q 46 287 62 332 q 78 376 106 409 q 135 441 176 458 q 216 476 267 476 q 318 476 359 458 q 400 441 428 409 q 457 376 472 332 q 487 287 487 231 z"},"N":{"x_min":0,"x_max":696,"ha":696,"o":"m 418 289 q 479 203 537 111 l 540 111 q 534 207 534 306 l 534 653 l 613 653 l 613 0 l 534 0 l 278 364 q 211 459 159 542 l 156 542 q 163 453 163 333 l 163 0 l 83 0 l 83 653 l 162 653 z"},"+":{"x_min":0,"x_max":513,"ha":513,"o":"m 56 287 l 222 287 l 222 464 l 291 464 l 291 287 l 457 287 l 457 222 l 291 222 l 291 45 l 222 45 l 222 222 l 56 222 z"},"G":{"x_min":0,"x_max":668,"ha":668,"o":"m 510 264 l 361 264 l 361 336 l 590 336 l 590 20 q 580 15 560 9 q 540 3 515 -1 q 489 -6 460 -9 q 431 -12 403 -12 q 319 -12 255 11 q 190 34 147 76 q 104 118 81 178 q 59 238 59 312 q 59 392 85 457 q 111 522 158 569 q 206 615 272 640 q 338 666 418 666 q 439 666 461 664 q 482 662 502 659 q 521 656 538 651 q 555 647 566 642 l 566 572 q 537 582 499 588 q 460 595 422 595 q 367 595 316 578 q 266 561 227 527 q 188 493 166 441 q 143 390 143 320 q 143 252 161 203 q 180 154 215 122 q 249 89 298 74 q 347 59 407 59 q 435 59 462 62 q 489 64 510 70 z"},"q":{"x_min":0,"x_max":523,"ha":523,"o":"m 123 229 q 123 174 136 140 q 149 105 170 86 q 190 66 214 59 q 238 52 259 52 q 294 52 325 66 q 356 81 379 105 l 379 348 q 373 356 362 368 q 351 379 336 388 q 321 398 302 405 q 283 411 260 411 q 227 411 201 398 q 175 384 158 360 q 141 336 132 303 q 123 270 123 229 z m 44 223 q 44 288 62 335 q 79 383 108 414 q 137 445 174 461 q 211 476 250 476 q 281 476 303 468 q 326 461 341 450 q 357 440 366 430 q 375 420 380 411 l 382 411 l 398 464 l 455 464 l 455 -227 l 379 -227 l 379 43 l 378 43 q 353 16 320 2 q 287 -12 245 -12 q 225 -12 203 -8 q 180 -3 158 7 q 135 18 115 35 q 94 52 79 78 q 63 104 53 140 q 44 176 44 223 z"},"d":{"x_min":0,"x_max":536,"ha":536,"o":"m 125 227 q 125 187 135 155 q 144 122 161 99 q 178 77 203 64 q 228 52 260 52 q 284 52 303 59 q 323 65 338 75 q 354 84 365 95 q 375 106 382 116 l 382 358 q 358 382 328 397 q 297 411 261 411 q 240 411 216 403 q 192 395 172 374 q 152 353 139 318 q 125 282 125 227 z m 46 226 q 46 274 56 312 q 65 349 81 377 q 97 405 118 424 q 139 442 161 454 q 184 466 207 471 q 230 476 250 476 q 293 476 324 462 q 355 448 380 420 l 382 420 l 382 707 l 458 707 l 458 0 l 400 0 l 385 52 l 383 52 q 374 41 362 29 q 351 18 335 8 q 319 -1 298 -7 q 277 -12 250 -12 q 212 -12 175 1 q 139 14 110 42 q 82 71 64 116 q 46 161 46 226 z"},"1":{"x_min":0,"x_max":448,"ha":448,"o":"m 220 70 l 220 383 l 44 328 l 44 398 l 230 464 l 296 464 l 296 70 l 424 70 l 424 0 l 64 0 l 64 70 z"},"5":{"x_min":0,"x_max":480,"ha":480,"o":"m 429 6 q 429 -39 412 -77 q 396 -115 365 -143 q 334 -170 290 -186 q 245 -202 188 -202 q 151 -202 118 -195 q 84 -188 57 -173 l 57 -108 q 93 -125 125 -130 q 158 -136 185 -136 q 227 -136 257 -125 q 288 -114 309 -95 q 329 -76 339 -51 q 350 -25 350 2 q 350 36 339 61 q 329 85 306 102 q 284 118 249 126 q 213 134 164 134 q 128 134 79 129 l 125 464 l 428 464 l 428 394 l 192 394 l 165 200 q 182 201 192 201 q 249 201 293 188 q 337 175 367 150 q 397 125 413 89 q 429 53 429 6 z"}}}
